<svg width="36" height="32" viewBox="0 0 36 32" fill="none" xmlns="http://www.w3.org/2000/svg">
<path d="M6.75 2.60465C6.75 3.01565 7.08578 3.34884 7.5 3.34884H9C9.41422 3.34884 9.75 3.01565 9.75 2.60465V0.744186C9.75 0.333183 10.0858 0 10.5 0H15.75C16.1642 0 16.5 0.333184 16.5 0.744186V4.46512C16.5 4.87613 16.1642 5.2093 15.75 5.2093H10.875C10.4608 5.2093 10.125 5.54247 10.125 5.95349V7.06977C10.125 7.48078 10.4608 7.81395 10.875 7.81395H15.75C16.1642 7.81395 16.5 8.14713 16.5 8.55814V13.7674C16.5 14.1785 16.1642 14.5116 15.75 14.5116H10.5C10.0858 14.5116 9.75 14.1785 9.75 13.7674V12.6512C9.75 12.2401 9.41422 11.907 9 11.907H7.5C7.08578 11.907 6.75 12.2401 6.75 12.6512V13.7674C6.75 14.1785 6.41422 14.5116 6 14.5116H0.75C0.335786 14.5116 0 14.1785 0 13.7674V0.744186C0 0.333183 0.335787 0 0.75 0H6C6.41422 0 6.75 0.333184 6.75 0.744186V2.60465Z" fill="#F2EAE3"/>
<path d="M35.25 0C35.6642 0 36 0.333184 36 0.744186V13.7674C36 14.1785 35.6642 14.5116 35.25 14.5116H20.25C19.8358 14.5116 19.5 14.1785 19.5 13.7674V0.744186C19.5 0.333183 19.8358 0 20.25 0H35.25ZM27 4.83721C26.5858 4.83721 26.25 5.17038 26.25 5.5814V8.93023C26.25 9.34125 26.5858 9.67442 27 9.67442H28.5C28.9142 9.67442 29.25 9.34125 29.25 8.93023V5.5814C29.25 5.17038 28.9142 4.83721 28.5 4.83721H27Z" fill="#F2EAE3"/>
<path d="M16.5 31.2558C16.5 31.6668 16.1642 32 15.75 32H0.75C0.335787 32 0 31.6668 0 31.2558V26.0465C0 25.6355 0.335787 25.3023 0.75 25.3023H15.75C16.1642 25.3023 16.5 25.6355 16.5 26.0465V31.2558ZM6.75 21.5814C6.75 21.9924 6.41422 22.3256 6 22.3256H0.75C0.335786 22.3256 0 21.9924 0 21.5814V18.2326C0 17.8215 0.335787 17.4884 0.75 17.4884H6C6.41422 17.4884 6.75 17.8215 6.75 18.2326V21.5814ZM16.5 21.5814C16.5 21.9924 16.1642 22.3256 15.75 22.3256H10.5C10.0858 22.3256 9.75 21.9924 9.75 21.5814V18.2326C9.75 17.8215 10.0858 17.4884 10.5 17.4884H15.75C16.1642 17.4884 16.5 17.8215 16.5 18.2326V21.5814Z" fill="#F2EAE3"/>
<path d="M28.5 25.3023C28.9142 25.3023 29.25 24.9692 29.25 24.5581V18.2326C29.25 17.8215 29.5858 17.4884 30 17.4884H35.25C35.6642 17.4884 36 17.8215 36 18.2326V31.2558C36 31.6668 35.6642 32 35.25 32H20.25C19.8358 32 19.5 31.6668 19.5 31.2558V26.0465C19.5 25.6355 19.8358 25.3023 20.25 25.3023H28.5Z" fill="#F2EAE3"/>
<path d="M28.5 25.3023C28.9142 25.3023 29.25 24.9692 29.25 24.5581V18.2326C29.25 17.8215 29.5858 17.4884 30 17.4884H35.25C35.6642 17.4884 36 17.8215 36 18.2326V31.2558C36 31.6668 35.6642 32 35.25 32H20.25C19.8358 32 19.5 31.6668 19.5 31.2558V26.0465C19.5 25.6355 19.8358 25.3023 20.25 25.3023H28.5Z" fill="#F2EAE3"/>
<path d="M21.2986 18.4514C21.1502 17.9729 21.5109 17.4884 22.0155 17.4884H25.2345C25.7391 17.4884 26.0998 17.9729 25.9513 18.4514L24.9129 21.8003C24.8161 22.1125 24.5253 22.3256 24.1961 22.3256H23.0539C22.7247 22.3256 22.4339 22.1125 22.3371 21.8003L21.2986 18.4514Z" fill="#F2EAE3"/>
</svg>
