<svg width="100" height="100" viewBox="0 0 100 100" fill="none" xmlns="http://www.w3.org/2000/svg">
<path d="M46 92.6982C46 96.7309 42.7309 100 38.6982 100C33.5559 100 30.0246 94.8259 31.8984 90.0371L46 54L9.96289 68.1016C5.17411 69.9754 0 66.4441 0 61.3018C3.50471e-05 57.2691 3.26912 54 7.30176 54H46V92.6982ZM92.6982 54C96.7309 54 100 57.2691 100 61.3018C100 66.4441 94.8259 69.9754 90.0371 68.1016L54 54L68.1016 90.0371C69.9754 94.8259 66.4441 100 61.3018 100C57.2691 100 54 96.7309 54 92.6982V54H92.6982ZM52 46C53.1046 46 54 46.8954 54 48V52C54 53.1046 53.1046 54 52 54H48C46.8954 54 46 53.1046 46 52V48C46 46.8954 46.8954 46 48 46H52ZM0 38.6982C0 33.5559 5.17411 30.0246 9.96289 31.8984L46 46H7.30176C3.26912 46 3.50482e-05 42.7309 0 38.6982ZM61.3018 0C66.4441 0 69.9754 5.17411 68.1016 9.96289L54 46V7.30176C54 3.26912 57.2691 3.50482e-05 61.3018 0ZM90.0371 31.8984C94.8259 30.0246 100 33.5559 100 38.6982C100 42.7309 96.7309 46 92.6982 46H54L90.0371 31.8984ZM38.6982 0C42.7309 3.50471e-05 46 3.26912 46 7.30176V46L31.8984 9.96289C30.0246 5.17411 33.5559 0 38.6982 0Z" fill="#EEE2D9"/>
</svg>
