<svg width="100" height="100" viewBox="0 0 100 100" fill="none" xmlns="http://www.w3.org/2000/svg">
<path fill-rule="evenodd" clip-rule="evenodd" d="M46 7.86805e-07L54 1.1365e-06L64 3.14722e-06H72C87.464 3.14722e-06 100 12.536 100 28V46V54V72C100 87.464 87.464 100 72 100C67.4141 100 63.5303 96.6184 62.8995 92.0761L59 64H41L37.1005 92.0761C36.4697 96.6184 32.5859 100 28 100C12.536 100 -6.75952e-07 87.464 0 72L7.86805e-07 54L1.1365e-06 46L3.14722e-06 28C3.14722e-06 12.536 12.536 -6.75952e-07 28 0L36 3.49691e-07L46 7.86805e-07ZM43.5 46H56.5L54.5503 31.962C54.2348 29.6908 52.293 28 50 28C47.707 28 45.7652 29.6908 45.4497 31.962L43.5 46Z" fill="#EEE2D9"/>
</svg>
