<svg width="100" height="100" viewBox="0 0 100 100" fill="none" xmlns="http://www.w3.org/2000/svg">
<path fill-rule="evenodd" clip-rule="evenodd" d="M0 46V54V64V72C0 87.464 12.536 100 28 100H46H54H72C87.464 100 100 87.464 100 72C100 67.2025 96.9841 62.9229 92.4661 61.3093L75.767 55.3453C73.5079 54.5386 72 52.3988 72 50C72 47.6012 73.508 45.4614 75.767 44.6547L92.4661 38.6907C96.9841 37.0771 100 32.7975 100 28C100 12.536 87.464 0 72 0H54H46H28C12.536 0 0 12.536 0 28V36V46ZM68 28L32 28C29.7909 28 28 29.7909 28 32C28 34.2091 29.7909 36 32 36H68C70.2091 36 72 34.2091 72 32C72 29.7909 70.2091 28 68 28ZM32 64H68C70.2091 64 72 65.7909 72 68C72 70.2091 70.2091 72 68 72H32C29.7909 72 28 70.2091 28 68C28 65.7909 29.7909 64 32 64Z" fill="#EEE2D9"/>
</svg>
