<svg width="100" height="100" viewBox="0 0 100 100" fill="none" xmlns="http://www.w3.org/2000/svg">
<path fill-rule="evenodd" clip-rule="evenodd" d="M10 54V46V42.4031C10 38.356 8.1603 34.5282 5 32C1.8397 29.4718 0 25.644 0 21.5969V18.9109C0 8.46671 8.46671 0 18.9109 0H46H54H72C87.464 0 100 12.536 100 28V36V45V53V64V72C100 87.464 87.464 100 72 100H54H46H18.9109C8.46671 100 0 91.5333 0 81.0891V78.4031C0 74.356 1.8397 70.5282 5 68C8.1603 65.4718 10 61.644 10 57.5969V54ZM46 68V32C46 29.7909 47.7909 28 50 28C52.2092 28 54 29.7909 54 32V68C54 70.2091 52.2092 72 50 72C47.7909 72 46 70.2091 46 68Z" fill="#EEE2D9"/>
</svg>
