<svg width="100" height="100" viewBox="0 0 100 100" fill="none" xmlns="http://www.w3.org/2000/svg">
<path d="M0 68V77C0 89.7025 10.2975 100 23 100H36C51.464 100 64 87.464 64 72C64 67.5817 67.5817 64 72 64H86.25C93.8439 64 100 57.8439 100 50.25C100 42.6561 93.8439 36.5 86.25 36.5H68.25C65.9028 36.5 64 34.5972 64 32.25C64 29.9028 65.9028 28 68.25 28H86C93.732 28 100 21.732 100 14C100 6.26801 93.732 0 86 0H23C10.2975 0 0 10.2975 0 23V32C0 39.732 6.26801 46 14 46H24C26.2091 46 28 47.7909 28 50C28 52.2091 26.2091 54 24 54H14C6.26801 54 0 60.268 0 68Z" fill="#EEE2D9"/>
</svg>
