<svg width="100" height="100" viewBox="0 0 100 100" fill="none" xmlns="http://www.w3.org/2000/svg">
<path d="M0 54V77C0 89.7025 10.2975 100 23 100H32C39.732 100 46 93.732 46 86V76C46 73.7909 47.7909 72 50 72C52.2091 72 54 73.7909 54 76V86C54 93.732 60.268 100 68 100H77C89.7025 100 100 89.7025 100 77V72V58V50V41.5V28V23C100 10.2975 89.7025 0 77 0H68C60.268 0 54 6.26801 54 14V24C54 26.2091 52.2091 28 50 28C47.7909 28 46 26.2091 46 24V14C46 6.26801 39.732 0 32 0H23C10.2975 0 0 10.2975 0 23V46V54Z" fill="#EEE2D9"/>
</svg>
