<svg width="100" height="100" viewBox="0 0 100 100" fill="none" xmlns="http://www.w3.org/2000/svg">
<path d="M46 -2.36041e-06L23 -3.36578e-06C10.2975 -3.92102e-06 -4.50116e-07 10.2974 -1.00536e-06 23L-1.39876e-06 32C-1.73674e-06 39.732 6.26801 46 14 46L24 46C26.2091 46 28 47.7909 28 50C28 52.2091 26.2091 54 24 54L14 54C6.26801 54 -2.6344e-06 60.268 -2.97237e-06 68L-3.36578e-06 77C-3.92102e-06 89.7025 10.2975 100 23 100L28 100L42 100L50 100L58.5 100L72 100L77 100C89.7025 100 100 89.7025 100 77L100 68C100 60.268 93.732 54 86 54L76 54C73.7909 54 72 52.2091 72 50C72 47.7909 73.7909 46 76 46L86 46C93.732 46 100 39.732 100 32L100 23C100 10.2975 89.7025 -4.50116e-07 77 -1.00536e-06L54 -2.01072e-06L46 -2.36041e-06Z" fill="#EEE2D9"/>
</svg>
