<svg width="100" height="100" viewBox="0 0 100 100" fill="none" xmlns="http://www.w3.org/2000/svg">
<path d="M0 54V84.521C0 93.0698 6.93019 100 15.479 100H21.4398C28.7365 100 34.0046 93.016 32 86L29.4008 76.9027C28.6988 74.4457 30.5436 72 33.0989 72C34.8161 72 36.3252 73.1384 36.797 74.7895L40 86C42.3676 94.2868 49.9418 100 58.5602 100H77C89.7025 100 100 89.7025 100 77V68C100 60.268 93.732 54 86 54H76C73.7909 54 72 52.2091 72 50C72 47.7909 73.7909 46 76 46H86C93.732 46 100 39.732 100 32V23C100 10.2975 89.7026 0 77 0H58.5602C49.9418 0 42.3676 5.71323 40 14L36.797 25.2105C36.3252 26.8616 34.8161 28 33.0989 28C30.5436 28 28.6988 25.5542 29.4008 23.0973L32 14C34.0046 6.98401 28.7365 0 21.4398 0H15.479C6.93019 0 0 6.93019 0 15.479V46V54Z" fill="#EEE2D9"/>
</svg>
