<svg width="101" height="101" viewBox="0 0 101 101" fill="none" xmlns="http://www.w3.org/2000/svg">
<path d="M0.5 46.5V54.5V64.5V72.5C0.5 87.964 13.036 100.5 28.5 100.5H36.5H46.5H54.5H64.5H72.5C87.964 100.5 100.5 87.964 100.5 72.5V64.5V58.161C100.5 46.198 90.802 36.5 78.839 36.5H77.0602C68.4418 36.5 60.8676 42.2132 58.5 50.5L55.3785 61.4253C54.8585 63.2453 53.195 64.5 51.3023 64.5C48.7523 64.5 46.7794 62.2651 47.0956 59.7348L52.2674 18.361C53.4529 8.87696 46.0578 0.5 36.5 0.5H28.5C13.036 0.5 0.5 13.036 0.5 28.5V32.5V36.5V46.5Z" fill="#EEE2D9"/>
<path d="M46.5 100.5H54.5H64.5H72.5M46.5 100.5H72.5M46.5 100.5H36.5H28.5C13.036 100.5 0.5 87.964 0.5 72.5V64.5M72.5 100.5C87.964 100.5 100.5 87.964 100.5 72.5V64.5V58.161C100.5 46.198 90.802 36.5 78.839 36.5H77.0602C68.4418 36.5 60.8676 42.2132 58.5 50.5L55.3785 61.4253C54.8585 63.2452 53.195 64.5 51.3023 64.5C48.7523 64.5 46.7794 62.2651 47.0956 59.7348L52.2674 18.361C53.4529 8.87696 46.0579 0.5 36.5 0.5H28.5C13.036 0.5 0.5 13.036 0.5 28.5V32.5V36.5M0.5 64.5V54.5V46.5V36.5M0.5 64.5V36.5" stroke="#EEE2D9"/>
</svg>
