<svg width="100" height="100" viewBox="0 0 100 100" fill="none" xmlns="http://www.w3.org/2000/svg">
<path d="M32 -2.97237e-06L23 -3.36578e-06C10.2975 -3.92102e-06 -4.50116e-07 10.2974 -1.00536e-06 23L-3.75918e-06 86C-4.09716e-06 93.732 6.26801 100 14 100C21.732 100 28 93.732 28 86L28 68C28 65.7909 29.7909 64 32 64C34.2091 64 36 65.7909 36 68L36 86.25C36 93.8439 42.1561 100 49.75 100C57.3439 100 63.5 93.8439 63.5 86.25L63.5 68.25C63.5 65.9028 65.4028 64 67.75 64C70.0972 64 72 65.9028 72 68.25L72 86C72 93.732 78.268 100 86 100C93.732 100 100 93.732 100 86L100 23C100 10.2975 89.7025 -4.50116e-07 77 -1.00536e-06L68 -1.39876e-06C60.268 -1.73674e-06 54 6.26801 54 14L54 24C54 26.2091 52.2091 28 50 28C47.7909 28 46 26.2091 46 24L46 14C46 6.26801 39.732 -2.6344e-06 32 -2.97237e-06Z" fill="#EEE2D9"/>
</svg>
