<svg width="100" height="100" viewBox="0 0 100 100" fill="none" xmlns="http://www.w3.org/2000/svg">
<path d="M0 46V54V64V72V83.7551C0 92.7269 7.27307 100 16.2449 100H29.3567C36.5456 100 40.8874 92.0471 37 86L31.3327 77.1842C29.8932 74.945 31.501 72 34.163 72C35.3079 72 36.3742 72.5822 36.9934 73.5452L45.2155 86.3352C50.6904 94.8518 60.1203 100 70.2449 100H72C87.464 100 100 87.464 100 72V64V54V46V36V28V16.2449C100 7.27307 92.7269 0 83.7551 0H70.6433C63.4544 0 59.1126 7.95287 63 14L68.6673 22.8158C70.1068 25.055 68.499 28 65.837 28C64.6921 28 63.6258 27.4178 63.0066 26.4548L54.7845 13.6648C49.3096 5.14823 39.8797 0 29.7551 0H28C12.536 0 0 12.536 0 28V36V46Z" fill="#EEE2D9"/>
</svg>
