<svg width="100" height="100" viewBox="0 0 100 100" fill="none" xmlns="http://www.w3.org/2000/svg">
<path fill-rule="evenodd" clip-rule="evenodd" d="M46 -2.36041e-06L54 -2.01072e-06L72 -1.22392e-06C87.464 -5.47967e-07 100 12.536 100 28L100 46L100 54L100 72.5C100 87.6878 87.6878 100 72.5 100L72 100L64 100L54 100L46 100L36 100L28 100C12.536 100 -3.82317e-06 87.464 -3.14722e-06 72L-2.36041e-06 54L-2.01072e-06 46L-1.22392e-06 28C-5.47967e-07 12.536 12.536 -3.82317e-06 28 -3.14722e-06L46 -2.36041e-06ZM60.1659 66.9562L56.2857 56.2857L66.9562 60.1659C69.4078 61.0574 72 59.2418 72 56.633C72 55.0523 71.0111 53.6404 69.5255 53.1002L61.6875 50.25L69.5255 47.3998C69.7112 47.3323 69.8891 47.2511 70.0583 47.1578C71.2429 46.504 72 45.2501 72 43.867C72 43.7821 71.9973 43.6981 71.9919 43.6149C71.9973 43.5328 72 43.4501 72 43.367C72 40.7582 69.4078 38.9426 66.9562 39.8341L56.2857 43.7143L60.1659 33.0438C61.0574 30.5922 59.2418 28 56.633 28C55.0523 28 53.6404 28.9889 53.1002 30.4745L50 39L46.8998 30.4745C46.3596 28.9889 44.9477 28 43.367 28C40.7582 28 38.9426 30.5922 39.8341 33.0438L43.7143 43.7143L33.0438 39.8341C30.5922 38.9426 28 40.7582 28 43.367C28 44.9477 28.9889 46.3596 30.4745 46.8998L39 50L30.4745 53.1002C28.9889 53.6404 28 55.0523 28 56.633C28 56.7179 28.0027 56.8019 28.0081 56.8851C28.0027 56.9672 28 57.0499 28 57.133C28 59.7418 30.5922 61.5574 33.0438 60.6659L43.5048 56.8619L39.8341 66.9562C38.9426 69.4078 40.7582 72 43.367 72C44.9477 72 46.3596 71.0111 46.8998 69.5255L50 61L53.1002 69.5255C53.6404 71.0111 55.0523 72 56.633 72C59.2418 72 61.0574 69.4078 60.1659 66.9562Z" fill="#EEE2D9"/>
</svg>
