<svg width="100" height="100" viewBox="0 0 100 100" fill="none" xmlns="http://www.w3.org/2000/svg">
<path fill-rule="evenodd" clip-rule="evenodd" d="M0 54V46V36V28C0 12.536 12.536 0 28 0H46H54H72C87.464 0 100 12.536 100 28V36C100 45.9411 91.9411 54 82 54H46C40.4772 54 36 58.4772 36 64V72V82C36 91.9411 27.9411 100 18 100C8.05888 100 0 91.9411 0 82V72V64V54ZM32 28L68 28C70.2091 28 72 29.7909 72 32C72 34.2091 70.2091 36 68 36H32C29.7909 36 28 34.2091 28 32C28 29.7909 29.7909 28 32 28Z" fill="#EEE2D9"/>
</svg>
