<svg width="100" height="100" viewBox="0 0 100 100" fill="none" xmlns="http://www.w3.org/2000/svg">
<path fill-rule="evenodd" clip-rule="evenodd" d="M0 46V54V64V72C0 87.464 12.536 100 28 100H36H46H54C59.5228 100 64 95.5229 64 90V82C64 72.0589 72.0589 64 82 64H90C95.5229 64 100 59.5228 100 54V46V36V28C100 12.536 87.464 0 72 0H64H54H46H36H28C12.536 0 0 12.536 0 28V36V46ZM39.8341 66.9562L53.1002 30.4745C53.6404 28.9889 55.0523 28 56.633 28C59.2418 28 61.0574 30.5922 60.1659 33.0438L46.8998 69.5255C46.3596 71.0111 44.9477 72 43.367 72C40.7582 72 38.9426 69.4078 39.8341 66.9562ZM82 72C76.4771 72 72 76.4771 72 82V90C72 95.5229 76.4771 100 82 100H90C95.5229 100 100 95.5229 100 90V82C100 76.4771 95.5229 72 90 72H82Z" fill="#EEE2D9"/>
</svg>
