<svg width="100" height="100" viewBox="0 0 100 100" fill="none" xmlns="http://www.w3.org/2000/svg">
<path fill-rule="evenodd" clip-rule="evenodd" d="M0 54V46V36V28C0 12.536 12.536 0 28 0H36H46H54H64H72C87.464 0 100 12.536 100 28V32C100 39.732 93.732 46 86 46H76C73.7909 46 72 47.7909 72 50C72 52.2091 73.7909 54 76 54H86C93.732 54 100 60.268 100 68V77C100 89.7025 89.7025 100 77 100H68C60.268 100 54 93.732 54 86V76C54 73.7909 52.2091 72 50 72C47.7909 72 46 73.7909 46 76V86C46 93.732 39.732 100 32 100H28C12.536 100 0 87.464 0 72V64V54ZM32 28L68 28C70.2091 28 72 29.7909 72 32C72 34.2091 70.2091 36 68 36H32C29.7909 36 28 34.2091 28 32C28 29.7909 29.7909 28 32 28Z" fill="#EEE2D9"/>
</svg>
