<svg width="100" height="100" viewBox="0 0 100 100" fill="none" xmlns="http://www.w3.org/2000/svg">
<path d="M54 100L46 100L36 100L16.2449 100C7.27307 100 -3.17916e-07 92.7269 -7.10085e-07 83.7551L-1.28322e-06 70.6433C-1.59746e-06 63.4544 7.95287 59.1126 14 63L22.8158 68.6673C25.055 70.1068 28 68.499 28 65.837C28 64.6921 27.4178 63.6258 26.4548 63.0066L13.6648 54.7845C5.14823 49.3096 -2.62794e-06 39.8797 -3.0705e-06 29.7551L-3.14722e-06 28C-3.82317e-06 12.536 12.536 3.82317e-06 28 3.14722e-06L36 2.79753e-06L46 2.36041e-06L54 2.01072e-06L64 1.57361e-06L72 1.22392e-06L83.7551 7.10085e-07C92.7269 3.17916e-07 100 7.27307 100 16.2449L100 29.3567C100 36.5456 92.0471 40.8874 86 37L77.1842 31.3327C74.9449 29.8932 72 31.501 72 34.163C72 35.3079 72.5822 36.3742 73.5452 36.9934L86.3352 45.2155C94.8518 50.6904 100 60.1203 100 70.2449C100 86.6782 86.6782 100 70.2449 100L64 100L54 100Z" fill="#EEE2D9"/>
</svg>
