<svg width="100" height="100" viewBox="0 0 100 100" fill="none" xmlns="http://www.w3.org/2000/svg">
<path d="M46 -2.36041e-06L23 -3.36578e-06C10.2975 -3.92102e-06 -4.50116e-07 10.2974 -1.00536e-06 23L-1.39876e-06 32C-1.73674e-06 39.732 6.26801 46 14 46L20 46C24.4183 46 28 49.5817 28 54L28 86C28 93.732 34.268 100 42 100L50 100L58.5 100C65.9558 100 72 93.9558 72 86.5L72 54C72 49.5817 75.5817 46 80 46L86 46C93.732 46 100 39.732 100 32L100 23C100 10.2975 89.7025 -4.50116e-07 77 -1.00536e-06L54 -2.01072e-06L46 -2.36041e-06Z" fill="#EEE2D9"/>
</svg>
