<svg width="100" height="100" viewBox="0 0 100 100" fill="none" xmlns="http://www.w3.org/2000/svg">
<path d="M46 100L54 100L64 100L72 100C87.464 100 100 87.464 100 72L100 54L100 46L100 28C100 12.536 87.464 -3.82317e-06 72 -3.14722e-06C62.0589 -2.71268e-06 54 8.05887 54 18L54 68C54 70.2091 52.2091 72 50 72C47.7909 72 46 70.2091 46 68L46 18C46 8.05887 37.9411 -1.65846e-06 28 -1.22392e-06C12.536 -5.47967e-07 -3.82317e-06 12.536 -3.14722e-06 28L-2.36041e-06 46L-2.01072e-06 54L-1.22392e-06 72C-5.47967e-07 87.464 12.536 100 28 100L36 100L46 100Z" fill="#EEE2D9"/>
</svg>
