<svg width="100" height="100" viewBox="0 0 100 100" fill="none" xmlns="http://www.w3.org/2000/svg">
<path d="M46 100L54 100L64 100C83.8822 100 100 83.8822 100 64L100 54L100 46L100 28C100 12.536 87.464 -3.82317e-06 72 -3.14722e-06C67.4141 -2.94676e-06 63.5303 3.38159 62.8994 7.92393L54.5503 68.038C54.2348 70.3092 52.293 72 50 72C47.707 72 45.7652 70.3092 45.4497 68.038L37.1005 7.92393C36.4697 3.38159 32.5859 -1.42438e-06 28 -1.22392e-06C12.536 -5.47967e-07 -3.82317e-06 12.536 -3.14722e-06 28L-2.36041e-06 46L-2.01072e-06 54L-1.57361e-06 64C-7.04529e-07 83.8822 16.1178 100 36 100L46 100Z" fill="#EEE2D9"/>
</svg>
