<svg width="100" height="100" viewBox="0 0 100 100" fill="none" xmlns="http://www.w3.org/2000/svg">
<path d="M68 100L77 100C89.7025 100 100 89.7025 100 77L100 14C100 6.26801 93.732 -4.09716e-06 86 -3.75918e-06C78.268 -3.4212e-06 72 6.26801 72 14L72 32C72 34.2091 70.2091 36 68 36C65.7909 36 64 34.2091 64 32L64 13.75C64 6.15608 57.8439 -2.52844e-06 50.25 -2.1965e-06C42.6561 -1.86456e-06 36.5 6.15608 36.5 13.75L36.5 31.75C36.5 34.0972 34.5972 36 32.25 36C29.9028 36 28 34.0972 28 31.75L28 14C28 6.26801 21.732 -9.49935e-07 14 -6.11959e-07C6.26801 -2.73984e-07 -4.09716e-06 6.26801 -3.75918e-06 14L-1.00536e-06 77C-4.50116e-07 89.7025 10.2975 100 23 100L32 100C39.732 100 46 93.732 46 86L46 76C46 73.7909 47.7909 72 50 72C52.2091 72 54 73.7909 54 76L54 86C54 93.732 60.268 100 68 100Z" fill="#EEE2D9"/>
</svg>
