<svg width="100" height="100" viewBox="0 0 100 100" fill="none" xmlns="http://www.w3.org/2000/svg">
<path d="M100 32V23C100 10.2975 89.7025 0 77 0H72C62.0589 0 54 8.05888 54 18V32C54 34.2091 52.2091 36 50 36C47.7909 36 46 34.2091 46 32V18C46 8.05888 37.9411 0 28 0H23C10.2975 0 0 10.2975 0 23V32C0 39.732 6.26801 46 14 46H24C26.2091 46 28 47.7909 28 50C28 52.2091 26.2091 54 24 54H14C6.26801 54 0 60.268 0 68V77C0 89.7025 10.2975 100 23 100H32C39.732 100 46 93.732 46 86V76C46 73.7909 47.7909 72 50 72C52.2091 72 54 73.7909 54 76V86C54 93.732 60.268 100 68 100H77C89.7025 100 100 89.7025 100 77V68C100 60.268 93.732 54 86 54H76C73.7909 54 72 52.2091 72 50C72 47.7909 73.7909 46 76 46H86C93.732 46 100 39.732 100 32Z" fill="#EEE2D9"/>
</svg>
