<svg width="100" height="100" viewBox="0 0 100 100" fill="none" xmlns="http://www.w3.org/2000/svg">
<path d="M50 100L58.5 100C65.9558 100 72 93.9558 72 86.5L72 78C72 70.268 78.268 64 86 64C93.732 64 100 57.732 100 50L100 46L100 23C100 10.2975 89.7025 -4.50116e-07 77 -1.00536e-06L68 -1.39877e-06C60.268 -1.73674e-06 54 6.26801 54 14L54 24C54 26.2091 52.2091 28 50 28C47.7908 28 46 26.2091 46 24L46 14C46 6.26801 39.732 -5.95617e-07 32 -2.97237e-06L23 -3.36578e-06C10.2974 -3.92102e-06 -4.50116e-07 10.2974 -1.00536e-06 23L-2.01072e-06 46L-2.18557e-06 50C-2.52355e-06 57.732 6.26801 64 14 64C21.732 64 28 70.268 28 78L28 86C28 93.732 34.268 100 42 100L50 100Z" fill="#EEE2D9"/>
</svg>
