<svg width="100" height="100" viewBox="0 0 100 100" fill="none" xmlns="http://www.w3.org/2000/svg">
<path d="M54 -2.01072e-06L46 -2.36041e-06L36 -2.79753e-06L16.2449 -3.66105e-06C7.27307 -4.05322e-06 -3.17916e-07 7.27307 -7.10085e-07 16.2449L-1.28322e-06 29.3567C-1.59746e-06 36.5456 7.95287 40.8874 14 37L22.8158 31.3327C25.055 29.8932 28 31.501 28 34.163C28 35.3079 27.4178 36.3742 26.4548 36.9934L13.6648 45.2155C5.14823 50.6904 -2.62794e-06 60.1203 -3.0705e-06 70.2449C-3.78882e-06 86.6782 13.3218 100 29.7551 100L36 100L46 100L54 100L64 100L83.7551 100C92.7269 100 100 92.7269 100 83.7551L100 70.6433C100 63.4544 92.0471 59.1126 86 63L77.1842 68.6673C74.9449 70.1068 72 68.499 72 65.837C72 64.6921 72.5822 63.6258 73.5452 63.0066L86.3352 54.7845C94.8518 49.3096 100 39.8797 100 29.7551C100 13.3218 86.6782 -5.82316e-07 70.2449 -1.30064e-06L64 -1.57361e-06L54 -2.01072e-06Z" fill="#EEE2D9"/>
</svg>
