<svg width="78" height="104" viewBox="0 0 78 104" fill="none" xmlns="http://www.w3.org/2000/svg">
<path d="M71.7947 31.656C65.9921 33.3241 57.2005 36.0922 52.6377 38.7246L55.6377 49C58.3851 44.2378 67.0918 37.4799 72.6436 33.4688C73.5562 32.8095 72.8768 31.3449 71.7947 31.656Z" fill="url(#paint0_linear_172_21067)"/>
<path d="M30 0C46.5685 0 60 13.4315 60 30V102C60 103.105 59.1046 104 58 104H54.8357C50.3963 104 46.5831 101.102 43.4905 97.9169C39.9471 94.2676 34.9885 92 29.5 92C24.0115 92 19.0529 94.2676 15.5095 97.9169C12.4169 101.102 8.60373 104 4.16427 104H2C0.895433 104 2.06227e-06 103.105 0 102V30C9.51581e-07 13.4315 13.4315 0 30 0Z" fill="url(#paint1_linear_172_21067)"/>
<rect x="35" y="25" width="3" height="6" rx="1.5" fill="#0F0F0F"/>
<rect x="51" y="25" width="3" height="6" rx="1.5" fill="#0F0F0F"/>
<path d="M70.3833 45.3949C63.7457 47.7482 53.2493 51.7124 48 54.9756L55.7782 62.7538C58.943 57.6627 66.3584 51.2274 71.3608 47.2001C72.2473 46.4864 71.4559 45.0146 70.3833 45.3949Z" fill="url(#paint2_linear_172_21067)"/>
<defs>
<linearGradient id="paint0_linear_172_21067" x1="71.6377" y1="30" x2="55.6377" y2="43" gradientUnits="userSpaceOnUse">
<stop stop-color="white"/>
<stop offset="1" stop-color="white" stop-opacity="0"/>
</linearGradient>
<linearGradient id="paint1_linear_172_21067" x1="30" y1="117.5" x2="30" y2="52" gradientUnits="userSpaceOnUse">
<stop stop-color="white" stop-opacity="0"/>
<stop offset="1" stop-color="white"/>
</linearGradient>
<linearGradient id="paint2_linear_172_21067" x1="66" y1="46" x2="53" y2="60" gradientUnits="userSpaceOnUse">
<stop offset="0.615157" stop-color="white"/>
<stop offset="1" stop-color="white" stop-opacity="0"/>
</linearGradient>
</defs>
</svg>
